<svg width="16" height="16" viewBox="0 0 16 16" fill="none" xmlns="http://www.w3.org/2000/svg">
<path d="M13.44 2.56021C13.2622 2.38245 13.0512 2.24144 12.819 2.14523C12.5868 2.04903 12.3379 1.99951 12.0865 1.99951C11.8351 1.99951 11.5862 2.04903 11.354 2.14523C11.1217 2.24144 10.9107 2.38245 10.733 2.56021L3.33798 9.95521C3.15719 10.1361 3.02094 10.3566 2.93998 10.5992L2.02598 13.3422C1.99678 13.4302 1.99264 13.5246 2.01401 13.6149C2.03538 13.7051 2.08142 13.7876 2.147 13.8532C2.21257 13.9188 2.29509 13.9648 2.38532 13.9862C2.47556 14.0076 2.56996 14.0034 2.65798 13.9742L5.40098 13.0602C5.64359 12.9792 5.86406 12.843 6.04498 12.6622L12 6.70721L12.263 6.97021C12.4034 7.11083 12.4823 7.30146 12.4823 7.50021C12.4823 7.69896 12.4034 7.88958 12.263 8.03021L11.146 9.14621C11.0521 9.24009 10.9993 9.36743 10.9993 9.50021C10.9993 9.63298 11.0521 9.76032 11.146 9.85421C11.2399 9.94809 11.3672 10.0008 11.5 10.0008C11.6328 10.0008 11.7601 9.94809 11.854 9.85421L12.97 8.73721C13.2979 8.40905 13.4821 7.96412 13.4821 7.50021C13.4821 7.03629 13.2979 6.59136 12.97 6.26321L12.707 6.00021L13.44 5.26821C13.6179 5.09045 13.759 4.87938 13.8553 4.64705C13.9516 4.41473 14.0012 4.1657 14.0012 3.91421C14.0012 3.66271 13.9516 3.41369 13.8553 3.18136C13.759 2.94903 13.6179 2.73796 13.44 2.56021V2.56021ZM11.662 5.63221C11.6515 5.64174 11.6415 5.65175 11.632 5.66221L5.33798 11.9552C5.26687 12.0261 5.18026 12.0795 5.08498 12.1112L3.29098 12.7092L3.88898 10.9162C3.92057 10.8206 3.97398 10.7336 4.04498 10.6622L11.44 3.26821C11.5249 3.18331 11.6257 3.11596 11.7366 3.07001C11.8475 3.02407 11.9664 3.00042 12.0865 3.00042C12.2065 3.00042 12.3254 3.02407 12.4364 3.07001C12.5473 3.11596 12.6481 3.18331 12.733 3.26821C12.8179 3.35311 12.8852 3.4539 12.9312 3.56482C12.9771 3.67575 13.0008 3.79464 13.0008 3.91471C13.0008 4.03477 12.9771 4.15366 12.9312 4.26459C12.8852 4.37552 12.8179 4.47631 12.733 4.56121L11.662 5.63221V5.63221Z" fill="white"/>
</svg>
